<svg xmlns="http://www.w3.org/2000/svg" width="59.399" height="39.943" viewBox="0 0 59.399 39.943">
  <g id="EU_flag" data-name="EU flag" transform="translate(-1872.371 -1041.421)">
    <rect id="Rectangle_23" data-name="Rectangle 23" width="59.399" height="39.943" transform="translate(1872.371 1041.421)" fill="#154295"/>
    <path id="Path_18" data-name="Path 18" d="M1882.031,1046.581l.5,1.533h1.612l-1.3.947.5,1.533-1.3-.948-1.3.948.5-1.533-1.3-.947h1.612Z" transform="translate(8.682 5.934)" fill="#f3cc23"/>
    <path id="Path_19" data-name="Path 19" d="M1884.2,1044.375l.5,1.533h1.612l-1.3.948.5,1.532-1.3-.947-1.3.947.5-1.532-1.3-.948h1.612Z" transform="translate(11.175 3.397)" fill="#f3cc23"/>
    <path id="Path_20" data-name="Path 20" d="M1887.286,1043.543l.5,1.533h1.612l-1.3.947.5,1.533-1.3-.948-1.3.948.5-1.533-1.3-.947h1.612Z" transform="translate(14.725 2.441)" fill="#f3cc23"/>
    <path id="Path_21" data-name="Path 21" d="M1890.338,1044.38l.5,1.533h1.612l-1.3.947.5,1.533-1.3-.948-1.3.948.5-1.533-1.3-.947h1.612Z" transform="translate(18.234 3.402)" fill="#f3cc23"/>
    <path id="Path_22" data-name="Path 22" d="M1892.586,1046.627l.5,1.533h1.612l-1.3.947.5,1.533-1.3-.948-1.3.948.5-1.533-1.3-.947h1.612Z" transform="translate(20.82 5.987)" fill="#f3cc23"/>
    <path id="Path_23" data-name="Path 23" d="M1893.418,1049.714l.5,1.533h1.612l-1.3.948.5,1.532-1.3-.947-1.3.947.5-1.532-1.3-.948h1.612Z" transform="translate(21.776 9.536)" fill="#f3cc23"/>
    <path id="Path_24" data-name="Path 24" d="M1892.583,1052.811l.5,1.533h1.612l-1.3.947.5,1.533-1.3-.947-1.3.947.5-1.533-1.3-.947h1.612Z" transform="translate(20.816 13.098)" fill="#f3cc23"/>
    <path id="Path_25" data-name="Path 25" d="M1890.335,1055.044l.5,1.533h1.612l-1.3.947.5,1.533-1.3-.948-1.3.948.5-1.533-1.3-.947h1.612Z" transform="translate(18.231 15.665)" fill="#f3cc23"/>
    <path id="Path_26" data-name="Path 26" d="M1887.293,1055.861l.5,1.532h1.612l-1.3.948.5,1.533-1.3-.948-1.3.948.5-1.533-1.3-.948h1.612Z" transform="translate(14.733 16.604)" fill="#f3cc23"/>
    <path id="Path_27" data-name="Path 27" d="M1884.206,1055.028l.5,1.533h1.612l-1.3.948.5,1.532-1.3-.947-1.3.947.5-1.532-1.3-.948h1.612Z" transform="translate(11.183 15.647)" fill="#f3cc23"/>
    <path id="Path_28" data-name="Path 28" d="M1882,1052.8l.5,1.533h1.612l-1.3.948.5,1.533-1.3-.948-1.3.948.5-1.533-1.3-.948h1.612Z" transform="translate(8.651 13.08)" fill="#f3cc23"/>
    <path id="Path_29" data-name="Path 29" d="M1881.171,1049.657l.5,1.548h1.628l-1.317.957.5,1.548-1.317-.957-1.317.957.5-1.548-1.317-.957h1.628Z" transform="translate(7.67 9.471)" fill="#f3cc23"/>
  </g>
</svg>
